<?xml version="1.0" encoding="UTF-8"?>
<svg xmlns="http://www.w3.org/2000/svg" viewBox="0 0 128 128" width="128" height="128" role="img" aria-label="Cosmic Raven">
  <defs>
    <radialGradient id="bg-animal-055" cx="50%" cy="40%" r="65%">
      <stop offset="0%" stop-color="#6930C3" stop-opacity="0.35"/>
      <stop offset="100%" stop-color="#5E60CE" stop-opacity="0.15"/>
    </radialGradient>
  </defs>
  <rect width="128" height="128" rx="64" fill="url(#bg-animal-055)"/>
  <rect width="128" height="128" rx="64" fill="#64DFDF" opacity="0.08"/>
  
  <circle cx="64" cy="70" r="38" fill="#5E60CE"/>
  <ellipse cx="38" cy="42" rx="19" ry="25" fill="#5E60CE"/>
  <ellipse cx="90" cy="42" rx="19" ry="25" fill="#5E60CE"/>
  <ellipse cx="38" cy="44" rx="13" ry="19" fill="#6930C3"/>
  <ellipse cx="90" cy="44" rx="13" ry="19" fill="#6930C3"/>
  <circle cx="50" cy="66" r="5" fill="#64DFDF"/>
  <circle cx="78" cy="66" r="5" fill="#64DFDF"/>
  <circle cx="51.5" cy="65" r="2" fill="#fff"/>
  <circle cx="79.5" cy="65" r="2" fill="#fff"/>
  <ellipse cx="64" cy="81.25" rx="13" ry="9.1" fill="#6930C3"/>
  <ellipse cx="64" cy="83.25" rx="4" ry="3" fill="#64DFDF"/>
  <path d="M56 90 Q64 96 72 90" stroke="#64DFDF" stroke-width="2.5" fill="none" stroke-linecap="round"/>
  
  <circle cx="30" cy="110" r="4" fill="#6930C3" opacity="0.35"/><circle cx="100" cy="108" r="3" fill="#64DFDF" opacity="0.3"/>
</svg>
