<?xml version="1.0" encoding="UTF-8"?>
<svg xmlns="http://www.w3.org/2000/svg" viewBox="0 0 128 128" width="128" height="128" role="img" aria-label="Sunny Giraffe">
  <defs>
    <radialGradient id="bg-animal-223" cx="50%" cy="40%" r="65%">
      <stop offset="0%" stop-color="#2EC4B6" stop-opacity="0.35"/>
      <stop offset="100%" stop-color="#FF9F1C" stop-opacity="0.15"/>
    </radialGradient>
  </defs>
  <rect width="128" height="128" rx="64" fill="url(#bg-animal-223)"/>
  <rect width="128" height="128" rx="64" fill="#FFF8F0" opacity="0.08"/>
  
  <circle cx="64" cy="70" r="38" fill="#FF9F1C"/>
  <ellipse cx="38" cy="42" rx="25" ry="31" fill="#FF9F1C"/>
  <ellipse cx="90" cy="42" rx="25" ry="31" fill="#FF9F1C"/>
  <ellipse cx="38" cy="44" rx="19" ry="25" fill="#2EC4B6"/>
  <ellipse cx="90" cy="44" rx="19" ry="25" fill="#2EC4B6"/>
  <circle cx="50" cy="66" r="5" fill="#FFF8F0"/>
  <circle cx="78" cy="66" r="5" fill="#FFF8F0"/>
  <circle cx="51.5" cy="65" r="2" fill="#fff"/>
  <circle cx="79.5" cy="65" r="2" fill="#fff"/>
  <ellipse cx="64" cy="81.25" rx="13" ry="9.1" fill="#2EC4B6"/>
  <ellipse cx="64" cy="83.25" rx="4" ry="3" fill="#FFF8F0"/>
  <path d="M56 90 Q64 96 72 90" stroke="#FFF8F0" stroke-width="2.5" fill="none" stroke-linecap="round"/>
  
  <circle cx="30" cy="110" r="4" fill="#2EC4B6" opacity="0.35"/><circle cx="100" cy="108" r="3" fill="#FFF8F0" opacity="0.3"/>
</svg>
