<?xml version="1.0" encoding="UTF-8"?>
<svg xmlns="http://www.w3.org/2000/svg" viewBox="0 0 128 128" width="128" height="128" role="img" aria-label="Sunny Duck">
  <defs>
    <radialGradient id="bg-animal-169" cx="50%" cy="40%" r="65%">
      <stop offset="0%" stop-color="#2A9D8F" stop-opacity="0.35"/>
      <stop offset="100%" stop-color="#E76F51" stop-opacity="0.15"/>
    </radialGradient>
  </defs>
  <rect width="128" height="128" rx="64" fill="url(#bg-animal-169)"/>
  <rect width="128" height="128" rx="64" fill="#E9C46A" opacity="0.08"/>
  
  <circle cx="64" cy="70" r="38" fill="#E76F51"/>
  <ellipse cx="38" cy="42" rx="22" ry="28" fill="#E76F51"/>
  <ellipse cx="90" cy="42" rx="22" ry="28" fill="#E76F51"/>
  <ellipse cx="38" cy="44" rx="16" ry="22" fill="#2A9D8F"/>
  <ellipse cx="90" cy="44" rx="16" ry="22" fill="#2A9D8F"/>
  <circle cx="50" cy="66" r="5" fill="#E9C46A"/>
  <circle cx="78" cy="66" r="5" fill="#E9C46A"/>
  <circle cx="51.5" cy="65" r="2" fill="#fff"/>
  <circle cx="79.5" cy="65" r="2" fill="#fff"/>
  <ellipse cx="64" cy="80.5" rx="10" ry="7" fill="#2A9D8F"/>
  <ellipse cx="64" cy="82.5" rx="4" ry="3" fill="#E9C46A"/>
  <path d="M56 90 Q64 96 72 90" stroke="#E9C46A" stroke-width="2.5" fill="none" stroke-linecap="round"/>
  
  <circle cx="30" cy="110" r="4" fill="#2A9D8F" opacity="0.35"/><circle cx="100" cy="108" r="3" fill="#E9C46A" opacity="0.3"/>
</svg>
